<svg xmlns="http://www.w3.org/2000/svg"  viewBox="0 0 64 64" width="48px" height="48px"><path d="M 20.896484 9.1972656 C 20.512531 9.1642422 20.115781 9.2416094 19.753906 9.4433594 C 14.118906 12.585359 10.124406 18.197078 9.0664062 24.455078 C 8.8824062 25.544078 9.6150781 26.575766 10.705078 26.759766 C 10.817078 26.778766 10.929063 26.787109 11.039062 26.787109 C 11.998063 26.787109 12.844766 26.097094 13.009766 25.121094 C 13.866766 20.048094 17.116172 15.4935 21.701172 12.9375 C 22.665172 12.3995 23.012609 11.181797 22.474609 10.216797 C 22.138984 9.6142969 21.536406 9.2523047 20.896484 9.1972656 z M 43.103516 9.1972656 C 42.463955 9.2523047 41.862266 9.6142969 41.525391 10.216797 C 40.986391 11.181797 41.333828 12.3995 42.298828 12.9375 C 46.883828 15.4935 50.133234 20.048094 50.990234 25.121094 C 51.155234 26.097094 52.001937 26.787109 52.960938 26.787109 C 53.070938 26.787109 53.182922 26.777766 53.294922 26.759766 C 54.384922 26.575766 55.118594 25.544078 54.933594 24.455078 C 53.876594 18.197078 49.882094 12.585359 44.246094 9.4433594 C 43.884594 9.2416094 43.487252 9.1642422 43.103516 9.1972656 z M 32 12 C 29.662 12 28.306672 13.604938 27.638672 15.085938 C 24.030672 15.809937 17.737984 18.956187 16.958984 26.742188 C 16.665984 31.334188 16.1185 39.883781 13.0625 41.300781 C 12.8505 41.398781 12.655234 41.533219 12.490234 41.699219 C 12.235234 41.954219 10 44.294 10 48 C 10 49.104 10.896 50 12 50 L 25.257812 50 C 25.652433 53.372928 28.522752 56 32 56 C 35.477248 56 38.347567 53.372928 38.742188 50 L 52 50 C 53.104 50 54 49.104 54 48 C 54 44.294 51.764766 41.954219 51.509766 41.699219 C 51.344766 41.534219 51.1495 41.397828 50.9375 41.298828 C 47.8825 39.881828 47.333203 31.333922 47.033203 26.669922 C 46.258203 18.945922 39.966375 15.806984 36.359375 15.083984 C 35.692375 13.603984 34.338 12 32 12 z M 32 16 C 32.603 16 32.766719 16.619859 32.886719 17.255859 C 33.063719 18.190859 33.884422 18.914062 34.857422 18.914062 C 34.931422 18.914063 42.311828 19.650047 43.048828 26.998047 C 43.557828 34.932047 44.389891 42.250797 48.837891 44.716797 C 49.024891 44.956797 49.333937 45.401 49.585938 46 L 14.414062 46 C 14.667063 45.397 14.976203 44.95375 15.158203 44.71875 C 19.609203 42.25475 20.442312 34.935313 20.945312 27.070312 C 21.688313 19.650312 29.068578 18.914062 29.142578 18.914062 C 30.099578 18.914063 30.934375 18.156391 31.109375 17.275391 C 31.232375 16.660391 31.396 16 32 16 z M 29.335938 50 L 34.664062 50 C 34.319789 51.152328 33.262739 52 32 52 C 30.737261 52 29.680211 51.152328 29.335938 50 z"/></svg>