<svg xmlns="http://www.w3.org/2000/svg"  viewBox="0 0 64 64" width="64px" height="64px" baseProfile="basic"><ellipse cx="32" cy="61" opacity=".3" rx="19" ry="3"/><circle cx="42" cy="36" r="19" fill="orange"/><circle cx="42" cy="36" r="14" fill="#ffce29"/><circle cx="29" cy="29" r="22" fill="orange"/><circle cx="29" cy="29" r="17" fill="#ffce29"/><path fill="orange" d="M30.654,19.315l1.995,4.042l4.461,0.648c1.64,0.238,2.295,2.254,1.108,3.411l-3.228,3.146	l0.762,4.443c0.28,1.634-1.435,2.88-2.902,2.108l-3.99-2.098l-3.99,2.098c-1.467,0.771-3.182-0.475-2.902-2.108l0.762-4.443	l-3.228-3.146c-1.187-1.157-0.532-3.173,1.108-3.411l4.461-0.648l1.995-4.042C27.801,17.828,29.92,17.828,30.654,19.315z"/><path d="M50.435,24.057C47.943,24.341,46,26.432,46,29c0,9.374-7.626,17-17,17 c-2.568,0-4.659,1.943-4.943,4.435C25.647,50.801,27.299,51,29,51c12.15,0,22-9.85,22-22C51,27.299,50.801,25.647,50.435,24.057z" opacity=".15"/><path fill="#fff" d="M29,12c2.568,0,4.659-1.943,4.943-4.435C32.353,7.199,30.701,7,29,7 C16.85,7,7,16.85,7,29c0,1.701,0.199,3.353,0.565,4.943C10.057,33.659,12,31.568,12,29C12,19.626,19.626,12,29,12z" opacity=".3"/><path fill="none" stroke="#fff" stroke-linecap="round" stroke-linejoin="round" stroke-miterlimit="10" stroke-width="3" d="M12.117,21.424c1.71-3.806,4.67-6.929,8.357-8.847"/></svg>