<svg xmlns="http://www.w3.org/2000/svg"  viewBox="0 0 50 50" width="50px" height="50px"><path d="M 25.0625 11.96875 C 25.03125 11.976563 25 11.988281 24.96875 12 L 16.96875 12 C 16.9375 12 16.90625 12 16.875 12 C 16.546875 12.027344 16.257813 12.214844 16.09375 12.5 L 13.09375 17.71875 L 10.46875 13.375 C 9.949219 12.515625 9.003906 12 8 12 L 1 12 C 0.96875 12 0.9375 12 0.90625 12 C 0.5625 12.027344 0.261719 12.230469 0.101563 12.535156 C -0.0546875 12.839844 -0.046875 13.203125 0.125 13.5 L 7.9375 27.21875 C 7.964844 27.320313 8.007813 27.414063 8.0625 27.5 L 14.65625 39 C 15.71875 40.851563 17.707031 42 19.84375 42 L 24.46875 42 C 24.691406 42.082031 24.933594 42.082031 25.15625 42 L 33 42 C 33.359375 42.003906 33.695313 41.8125 33.875 41.5 L 36.875 36.25 L 39.53125 40.59375 C 40.050781 41.453125 40.996094 41.96875 42 41.96875 L 49 41.96875 C 49.359375 41.972656 49.691406 41.78125 49.871094 41.472656 C 50.054688 41.164063 50.054688 40.78125 49.875 40.46875 L 41.96875 26.625 C 41.96875 26.613281 41.96875 26.605469 41.96875 26.59375 L 41.9375 26.53125 C 41.925781 26.519531 41.917969 26.511719 41.90625 26.5 C 41.886719 26.46875 41.867188 26.4375 41.84375 26.40625 L 35.3125 15 C 34.25 13.144531 32.261719 12 30.125 12 L 25.28125 12 C 25.210938 11.980469 25.136719 11.972656 25.0625 11.96875 Z M 2.71875 14 L 8 14 C 8.304688 14 8.585938 14.167969 8.75 14.4375 L 11.96875 19.71875 L 8.96875 24.9375 Z M 17.5625 14 L 23.40625 14 L 20.3125 19.40625 L 20.3125 19.4375 L 20.28125 19.46875 C 20.246094 19.519531 20.214844 19.570313 20.1875 19.625 L 16.25 26.5 C 16.214844 26.550781 16.183594 26.601563 16.15625 26.65625 C 16.15625 26.667969 16.15625 26.675781 16.15625 26.6875 C 15.976563 27.109375 16.105469 27.597656 16.46875 27.875 C 16.480469 27.886719 16.488281 27.894531 16.5 27.90625 L 20.1875 34.375 C 20.367188 34.6875 20.703125 34.878906 21.0625 34.875 L 27.1875 34.875 L 24.28125 40 L 19.84375 40 C 18.421875 40 17.113281 39.234375 16.40625 38 L 10.09375 27 L 13.84375 20.4375 C 13.980469 20.308594 14.074219 20.148438 14.125 19.96875 Z M 25.71875 14 L 30.125 14 C 31.546875 14 32.855469 14.765625 33.5625 16 L 39.875 27 L 36.03125 33.6875 C 35.992188 33.746094 35.960938 33.808594 35.9375 33.875 L 32.40625 40 L 26.5625 40 L 29.6875 34.5625 L 29.71875 34.46875 C 29.742188 34.4375 29.761719 34.40625 29.78125 34.375 L 33.71875 27.5 C 33.894531 27.203125 33.90625 26.839844 33.75 26.53125 C 33.738281 26.519531 33.730469 26.511719 33.71875 26.5 L 33.71875 26.46875 C 33.683594 26.402344 33.640625 26.339844 33.59375 26.28125 L 29.78125 19.625 C 29.605469 19.324219 29.285156 19.132813 28.9375 19.125 L 22.78125 19.125 Z M 21.625 21.125 L 28.34375 21.125 L 31.71875 27 L 28.34375 32.875 L 21.625 32.875 L 18.25 27 L 19.90625 24.125 Z M 41.03125 29.03125 L 47.28125 39.96875 L 42 39.96875 C 41.695313 39.96875 41.414063 39.832031 41.25 39.5625 L 38.03125 34.25 Z"/></svg>